<svg width="40" height="40" viewBox="0 0 40 40" fill="none" xmlns="http://www.w3.org/2000/svg">
<path d="M38.2987 32.9513L30.535 3.97253C30.055 2.22503 28.48 0.962529 26.6112 0.962529C26.2375 0.962529 25.875 1.01253 25.5312 1.10753L25.56 1.10128L21.94 2.07128C21.6525 2.15253 21.4037 2.25253 21.1675 2.37503L21.19 2.36503C20.4475 1.49253 19.35 0.940029 18.1237 0.936279H14.375C13.425 0.940029 12.5537 1.27378 11.8675 1.82753L11.875 1.82128C11.1962 1.27378 10.325 0.940029 9.37625 0.936279H5.625C3.3825 0.938779 1.565 2.75628 1.5625 4.99878V34.9988C1.565 37.2413 3.3825 39.0588 5.625 39.0613H9.375C10.325 39.0575 11.1962 38.725 11.8825 38.1713L11.875 38.1775C12.5537 38.725 13.425 39.0575 14.3737 39.0625H18.1225C20.365 39.06 22.1825 37.2425 22.185 35V18.6838L26.8312 36.025C27.3087 37.7725 28.8825 39.035 30.7512 39.035C31.1262 39.035 31.4887 38.9838 31.8337 38.8888L31.805 38.895L35.4275 37.9263C37.175 37.4438 38.4362 35.8688 38.4362 34C38.4362 33.6275 38.3862 33.2663 38.2925 32.9225L38.2987 32.9513ZM23.7825 12.5763L29.215 11.12L33.5825 27.4225L28.1512 28.8775L23.7825 12.5763ZM22.7487 5.09003L26.3675 4.12128C26.4375 4.10253 26.5187 4.09253 26.6025 4.09253C27.035 4.09253 27.4012 4.38128 27.5162 4.77628L27.5175 4.78253L28.4075 8.10253L22.975 9.55878L22.185 6.61253V5.55253C22.3025 5.32878 22.5025 5.16253 22.7425 5.09003H22.7487ZM14.375 4.06253H18.1225C18.6375 4.07003 19.0525 4.48503 19.06 4.99878V8.43628L13.4375 8.43753V5.00003C13.445 4.48503 13.86 4.07003 14.3737 4.06253H14.375ZM10.3125 28.4375H4.6875V11.5625L10.3125 11.5613V28.4375ZM13.4375 11.5625L19.06 11.5613V28.4375H13.4375V11.5625ZM5.625 4.06253H9.375C9.89 4.07003 10.305 4.48503 10.3125 4.99878V8.43628L4.6875 8.43753V5.00003C4.695 4.48503 5.11125 4.07003 5.625 4.06253ZM9.375 35.9375H5.625C5.11 35.93 4.695 35.515 4.6875 35.0013V31.5625H10.3125V35C10.305 35.515 9.88875 35.93 9.375 35.9375ZM18.1225 35.9375H14.375C13.86 35.93 13.445 35.515 13.4375 35.0013V31.5625H19.06V35C19.0525 35.515 18.6362 35.93 18.1225 35.9375ZM34.6162 34.91L30.9962 35.8788C30.925 35.8975 30.8437 35.9088 30.76 35.9088C30.5862 35.9088 30.4237 35.8625 30.2837 35.7813L30.2887 35.7838C30.075 35.66 29.9162 35.46 29.8512 35.2213L29.85 35.215L28.9612 31.8963L34.3925 30.4413L35.2825 33.7625C35.3012 33.8325 35.3112 33.9125 35.3112 33.995C35.3112 34.4288 35.0212 34.7938 34.625 34.9075L34.6187 34.9088L34.6162 34.91Z" fill="#DDDDDD" stroke="#DDDDDD"/>
</svg>
