<svg width="40" height="40" viewBox="0 0 40 40" fill="none" xmlns="http://www.w3.org/2000/svg">
<path d="M23.364 12.274C23.5427 11.6072 23.147 10.9218 22.4802 10.7431C21.8133 10.5644 21.1278 10.9602 20.9492 11.627L16.6355 27.7258C16.4568 28.3926 16.8525 29.0779 17.5193 29.2568C18.1861 29.4354 18.8716 29.0396 19.0503 28.3728L23.364 12.274Z" fill="#DDDDDD"/>
<path d="M26.7172 14.1161C26.229 13.628 25.4377 13.628 24.9495 14.1161C24.4613 14.6043 24.4613 15.3957 24.9495 15.8839L25.2353 16.1698C26.3715 17.306 27.1328 18.071 27.6255 18.7168C28.0962 19.3337 28.2027 19.6928 28.2027 20C28.2027 20.3072 28.0962 20.6663 27.6255 21.2832C27.1328 21.929 26.3715 22.694 25.2353 23.8302L24.9495 24.1162C24.4613 24.6043 24.4613 25.3957 24.9495 25.8838C25.4377 26.372 26.229 26.372 26.7172 25.8838L27.0645 25.5367C28.1233 24.4778 29.0063 23.5948 29.613 22.7997C30.2535 21.9603 30.7027 21.0735 30.7027 20C30.7027 18.9265 30.2535 18.0397 29.613 17.2003C29.0063 16.4051 28.1233 15.5222 27.0645 14.4633L26.7172 14.1161Z" fill="#DDDDDD"/>
<path d="M13.2831 14.1161C13.7712 13.628 14.5627 13.628 15.0509 14.1161C15.539 14.6043 15.539 15.3957 15.0509 15.8839L14.7649 16.1698C13.6288 17.306 12.8675 18.071 12.3748 18.7168C11.9041 19.3337 11.7977 19.6928 11.7977 20C11.7977 20.3072 11.9041 20.6663 12.3748 21.2832C12.8675 21.929 13.6288 22.694 14.7649 23.8302L15.0509 24.1162C15.539 24.6043 15.539 25.3957 15.0509 25.8838C14.5627 26.372 13.7712 26.372 13.2831 25.8838L12.9358 25.5367C11.877 24.4778 10.9939 23.5948 10.3872 22.7997C9.74683 21.9603 9.29767 21.0735 9.29767 20C9.29767 18.9265 9.74683 18.0397 10.3872 17.2003C10.9939 16.4051 11.8769 15.5222 12.9358 14.4634L13.2831 14.1161Z" fill="#DDDDDD"/>
<path fill-rule="evenodd" clip-rule="evenodd" d="M19.9043 2.08325C16.057 2.08324 13.042 2.08322 10.6895 2.3995C8.2816 2.72324 6.38156 3.3988 4.89021 4.89015C3.39886 6.3815 2.7233 8.28154 2.39956 10.6894C2.08328 13.0419 2.0833 16.057 2.08331 19.9043V20.0956C2.0833 23.9429 2.08328 26.9579 2.39956 29.3104C2.7233 31.7183 3.39886 33.6184 4.89021 35.1098C6.38156 36.6011 8.2816 37.2766 10.6895 37.6004C13.042 37.9166 16.057 37.9166 19.9043 37.9166H20.0956C23.943 37.9166 26.958 37.9166 29.3105 37.6004C31.7183 37.2766 33.6185 36.6011 35.1098 35.1098C36.6011 33.6184 37.2766 31.7183 37.6005 29.3104C37.9166 26.9579 37.9166 23.9429 37.9166 20.0956V19.9043C37.9166 16.057 37.9166 13.0419 37.6005 10.6894C37.2766 8.28154 36.6011 6.3815 35.1098 4.89015C33.6185 3.3988 31.7183 2.72324 29.3105 2.3995C26.958 2.08322 23.943 2.08324 20.0956 2.08325H19.9043ZM6.65798 6.65792C7.6074 5.70849 8.89193 5.16367 11.0226 4.8772C13.1892 4.5859 16.0363 4.58325 20 4.58325C23.9636 4.58325 26.8106 4.5859 28.9773 4.8772C31.108 5.16367 32.3925 5.70849 33.342 6.65792C34.2915 7.60734 34.8363 8.89187 35.1226 11.0226C35.414 13.1892 35.4166 16.0362 35.4166 19.9999C35.4166 23.9636 35.414 26.8106 35.1226 28.9773C34.8363 31.1079 34.2915 32.3924 33.342 33.3419C32.3925 34.2914 31.108 34.8363 28.9773 35.1226C26.8106 35.4139 23.9636 35.4166 20 35.4166C16.0363 35.4166 13.1892 35.4139 11.0226 35.1226C8.89193 34.8363 7.6074 34.2914 6.65798 33.3419C5.70855 32.3924 5.16373 31.1079 4.87726 28.9773C4.58596 26.8106 4.58331 23.9636 4.58331 19.9999C4.58331 16.0362 4.58596 13.1892 4.87726 11.0226C5.16373 8.89187 5.70855 7.60734 6.65798 6.65792Z" fill="#DDDDDD"/>
</svg>
