<svg width="40" height="40" viewBox="0 0 40 40" fill="none" xmlns="http://www.w3.org/2000/svg">
<path fill-rule="evenodd" clip-rule="evenodd" d="M15 2.08325H21.7607C24.8236 2.08322 27.2497 2.0832 29.1484 2.33849C31.1024 2.60119 32.684 3.15472 33.9313 4.40199C35.1785 5.64927 35.7321 7.23085 35.9948 9.18489C36.25 11.0836 36.25 13.5096 36.25 16.5725V26.6666C36.25 29.7869 33.9632 32.3733 30.9741 32.8411C30.7442 34.1144 30.3041 35.2012 29.4194 36.0861C28.4162 37.0892 27.1531 37.5207 25.6529 37.7224C24.208 37.9166 22.3708 37.9166 20.0915 37.9166H14.9085C12.6292 37.9166 10.792 37.9166 9.347 37.7224C7.84683 37.5207 6.58384 37.0892 5.5805 36.0861C4.57734 35.0827 4.14584 33.8198 3.94417 32.3196C3.75 30.8746 3.75 29.0374 3.75 26.7581V18.2418C3.75 15.9625 3.75 14.1253 3.94417 12.6803C4.14584 11.1802 4.57734 9.91704 5.5805 8.91384C6.46534 8.02914 7.55217 7.58905 8.8255 7.3591C9.29333 4.37 11.8797 2.08325 15 2.08325ZM11.4512 7.11854C11.9558 5.64364 13.354 4.58325 15 4.58325H21.6667C24.8447 4.58325 27.1025 4.5859 28.8152 4.81619C30.4921 5.04162 31.4581 5.4644 32.1635 6.16975C32.8688 6.8751 33.2916 7.84119 33.5171 9.518C33.7473 11.2308 33.75 13.4886 33.75 16.6666V26.6666C33.75 28.3126 32.6896 29.7108 31.2147 30.2154C31.25 29.1989 31.25 28.0494 31.25 26.7581V18.2418C31.25 15.9625 31.2501 14.1253 31.0558 12.6803C30.8541 11.1802 30.4226 9.91704 29.4194 8.91384C28.4162 7.91064 27.1531 7.47915 25.6529 7.27745C24.208 7.08319 22.3708 7.08322 20.0915 7.08325H14.9085C13.6172 7.08324 12.4677 7.08322 11.4512 7.11854ZM27.6516 10.6816C27.1904 10.2203 26.5427 9.91959 25.3198 9.75517C24.0609 9.5859 22.3923 9.58325 20 9.58325H15C12.6077 9.58325 10.9392 9.5859 9.68017 9.75517C8.45717 9.91959 7.80967 10.2203 7.34834 10.6816C6.887 11.1429 6.58633 11.7905 6.42183 13.0135C6.25267 14.2724 6.25 15.9409 6.25 18.3333V26.6666C6.25 29.0589 6.25267 30.7274 6.42183 31.9864C6.58633 33.2094 6.887 33.8569 7.34834 34.3182C7.80967 34.7796 8.45717 35.0802 9.68017 35.2448C10.9392 35.4139 12.6077 35.4166 15 35.4166H20C22.3923 35.4166 24.0609 35.4139 25.3198 35.2448C26.5427 35.0802 27.1904 34.7796 27.6516 34.3182C28.1129 33.8569 28.4137 33.2094 28.5781 31.9864C28.7473 30.7274 28.75 29.0589 28.75 26.6666V18.3333C28.75 15.9409 28.7473 14.2724 28.5781 13.0135C28.4137 11.7905 28.1129 11.1429 27.6516 10.6816Z" fill="#DDDDDD"/>
</svg>
