<svg width="40" height="40" viewBox="0 0 40 40" fill="none" xmlns="http://www.w3.org/2000/svg">
<path fill-rule="evenodd" clip-rule="evenodd" d="M20 30C25.5228 30 30 25.5228 30 20C30 14.4771 25.5228 10 20 10C14.4771 10 10 14.4771 10 20C10 25.5228 14.4771 30 20 30ZM20 26.6667C23.6818 26.6667 26.6667 23.6818 26.6667 20C26.6667 16.3181 23.6818 13.3333 20 13.3333C16.3181 13.3333 13.3333 16.3181 13.3333 20C13.3333 23.6818 16.3181 26.6667 20 26.6667Z" fill="#DDDDDD"/>
<path d="M30 8.33301C29.0795 8.33301 28.3333 9.07921 28.3333 9.99967C28.3333 10.9201 29.0795 11.6663 30 11.6663C30.9205 11.6663 31.6667 10.9201 31.6667 9.99967C31.6667 9.07921 30.9205 8.33301 30 8.33301Z" fill="#DDDDDD"/>
<path fill-rule="evenodd" clip-rule="evenodd" d="M2.7566 7.1266C1.66667 9.26572 1.66667 12.066 1.66667 17.6665V22.3332C1.66667 27.9337 1.66667 30.734 2.7566 32.873C3.71533 34.7547 5.24513 36.2845 7.12677 37.2432C9.26589 38.3332 12.0662 38.3332 17.6667 38.3332H22.3333C27.9338 38.3332 30.7342 38.3332 32.8732 37.2432C34.7548 36.2845 36.2847 34.7547 37.2433 32.873C38.3333 30.734 38.3333 27.9337 38.3333 22.3332V17.6665C38.3333 12.066 38.3333 9.26572 37.2433 7.1266C36.2847 5.24497 34.7548 3.71517 32.8732 2.75644C30.7342 1.6665 27.9338 1.6665 22.3333 1.6665H17.6667C12.0662 1.6665 9.26589 1.6665 7.12677 2.75644C5.24513 3.71517 3.71533 5.24497 2.7566 7.1266ZM22.3333 4.99984H17.6667C14.8114 4.99984 12.8704 5.00244 11.3701 5.125C9.90874 5.2444 9.1614 5.46082 8.64007 5.72645C7.38565 6.36562 6.36579 7.38549 5.72662 8.6399C5.46098 9.16124 5.24457 9.90857 5.12517 11.37C5.0026 12.8703 5 14.8112 5 17.6665V22.3332C5 25.1885 5.0026 27.1293 5.12517 28.6297C5.24457 30.0912 5.46098 30.8385 5.72662 31.3598C6.36579 32.6142 7.38565 33.634 8.64007 34.2732C9.1614 34.5388 9.90874 34.7553 11.3701 34.8747C12.8704 34.9972 14.8114 34.9998 17.6667 34.9998H22.3333C25.1887 34.9998 27.1295 34.9972 28.6298 34.8747C30.0913 34.7553 30.8387 34.5388 31.36 34.2732C32.6143 33.634 33.6342 32.6142 34.2733 31.3598C34.539 30.8385 34.7555 30.0912 34.8748 28.6297C34.9973 27.1293 35 25.1885 35 22.3332V17.6665C35 14.8112 34.9973 12.8703 34.8748 11.37C34.7555 9.90857 34.539 9.16124 34.2733 8.6399C33.6342 7.38549 32.6143 6.36562 31.36 5.72645C30.8387 5.46082 30.0913 5.2444 28.6298 5.125C27.1295 5.00244 25.1887 4.99984 22.3333 4.99984Z" fill="#DDDDDD"/>
</svg>
