<svg width="40" height="40" viewBox="0 0 40 40" fill="none" xmlns="http://www.w3.org/2000/svg">
<path d="M17.1682 22.8248L33.5033 6.49566M17.6325 23.5591L21.3365 30.9673C22.2317 32.7575 22.6792 33.6526 23.243 33.8926C23.7323 34.101 24.2917 34.0631 24.7487 33.7911C25.2752 33.4776 25.5985 32.5305 26.2453 30.6363L33.2438 10.1405C33.8075 8.49011 34.0892 7.66489 33.8963 7.11899C33.7285 6.64409 33.355 6.27052 32.8802 6.10274C32.3342 5.90987 31.509 6.19166 29.8585 6.75521L9.36271 13.7538C7.46856 14.4006 6.52148 14.724 6.20796 15.2505C5.93588 15.7074 5.89818 16.2667 6.10648 16.756C6.34651 17.3198 7.24163 17.7675 9.03186 18.6625L16.4399 22.3666C16.735 22.5141 16.8825 22.5878 17.0102 22.6863C17.1237 22.7738 17.2253 22.8755 17.3127 22.9888C17.4113 23.1166 17.485 23.2641 17.6325 23.5591Z" stroke="#DDDDDD" stroke-width="2" stroke-linecap="round" stroke-linejoin="round"/>
</svg>
